<svg xmlns="http://www.w3.org/2000/svg" width="128" height="128" viewBox="0 0 128 128">
  <defs>
    <mask id="git-branch" maskUnits="userSpaceOnUse" x="0" y="0" width="128" height="128">
      <rect width="128" height="128" fill="#fff"/>
      <g fill="none" stroke="#000" stroke-linecap="round" stroke-linejoin="round" stroke-width="8">
        <path d="m39 60 25-22v56"/>
        <path d="m64 38 27-27"/>
      </g>
      <g fill="#000">
        <circle cx="39" cy="60" r="9"/>
        <circle cx="64" cy="38" r="9"/>
        <circle cx="64" cy="94" r="9"/>
      </g>
    </mask>
  </defs>
  <path
    fill="#0078d7"
    mask="url(#git-branch)"
    d="M70 6 122 58a8.5 8.5 0 0 1 0 12l-52 52a8.5 8.5 0 0 1-12 0L6 70a8.5 8.5 0 0 1 0-12L58 6a8.5 8.5 0 0 1 12 0z"
  />
</svg>
